<svg xmlns="http://www.w3.org/2000/svg" viewBox="0 0 1611.45 1611.45"><g id="OBJECTS"><path d="M580.7,475.5c46.65-.61,89.52,29.45,96,67.34-2.76,4.32-1.4,9-1.41,13.47q-.14,116-.13,232c0,4.23,1.19,8.57.15,10.52V699.16c0-47-.05-93.95.09-140.93,0-4.45-1.63-9.15,1.62-13.37,3.78,5.85,2.43,12.22,2.43,18.38.1,77.47.32,155-.24,232.41-.07,10.13,3.56,12.34,15,12.12,32.5-.63,65.06-.83,97.54,0,12.62.34,14.38-3.36,14.36-12.59q-.43-261.78-.3-523.55c0-12.43,2.3-23.27,18.22-28.34,97-1,194-.24,291.07-.38,10.84,2.3,16.82,8.16,18.29,17.32.35,4.2-1.72,8.34-.51,12.56-4.39,13.61-16.36,17.53-31.71,17.51-73.49,0-147,.25-220.46-.29-12.48-.1-15.52,2.47-15.5,12.87q.64,246,0,492c0,10.38,3.09,13,15.55,12.91,76.48-.52,153-.33,229.45-.21,16.64,0,28.24,8.11,31,20.64,2.56,11.67-4.6,21.18-20.16,26.78-5.27-1.91-10.84-1-16.26-1q-107.77-.1-215.57-.1c-5.08,0-10.28,1-12.62.13,69,0,140.76-.09,212.46.1,9.83,0,19.87-1.75,29.54,1.29-5.48,3.09-11.67,1.62-17.51,1.63-74,.1-148,.3-222.06-.21-11.6-.08-13.76,2.77-13.73,11.8q.51,220.49,0,441c0,8.68,2.44,11.06,13.06,11,72.52-.42,145-.26,217.56-.16,5.85,0,12-1.35,17.52,1.71-4.88,3.24-10.6,1.61-15.88,1.61q-110.86.14-221.73,0c-1.37,0-2.82-.59-2.88,1.3,4.72-2.29,9.88-1.06,14.8-1.06q105.63-.15,211.24-.13c5.38,0,11,1.19,16.15-1.22,10.78,2.38,17,8.08,18.27,17.39.35,4.2-1.68,8.33-.52,12.56-1.35,7.4-6.88,11.84-14.88,14.52-9.89-1.66-19.9-.7-29.84-.71q-113.07-.17-226.14-.11c-5.06,0-10.26.93-12.54.12h104.7q73.38,0,146.76.06c4.87,0,10-1.19,14.6,1.29-5.21,3.72-11.49,2.16-17.28,2.17q-127.56.15-255.11.07c-27.19,0-37.23-8.26-37.23-30.72,0-156.18-.19-312.35.36-468.53,0-11.87-4.23-14.22-17.35-13.9-31.49.77-63,.85-94.52-.07-13.13-.39-15.21,3.27-15.11,13.19.58,58.72.35,117.45.2,176.17,0,6.56,1.54,13.35-2.36,19.62a6.07,6.07,0,0,1-1.77-4.61q0-98.43-.1-196.86,0,96.13.06,192.25c0,4.53-1,9.16,1.07,13.59-8.46,36.07-47.09,64-89.69,64.91-4.2-2-8.8-1.11-13.21-1.12q-205.87-.06-411.76,0c-4.43,0-9-.8-13.25,1-45.47-1.39-86.28-34.25-89.85-72.34,2.4-4.15.61-8.85,2.51-13.08q.55-243.21,0-486.39c-2.26-4.93.17-10.39-2.41-15.31,3.54-38.54,46.18-71.72,92.83-72.24,4.28,1.68,8.85.95,13.28.95q201.34.06,402.68,0C571.9,476.58,576.49,477.42,580.7,475.5Z"/><path d="M1532.36,150.63c12.05,1.51,18.87,7.4,20.85,17.31-1.94,2.68-1.29,5.65-1.3,8.51q0,88.95,0,177.89c0,2.86-.67,5.83,1.35,8.49-1.81,10.08-8.56,16.1-20.83,17.59-110.06-.32-220.12.3-330.19-.35-9.64-1.83-15.67-6.66-17.76-14.78,2.29-4.4,1.16-9,1.17-13.54.09-51.52,0-103,.11-154.54,0-4.23-1.07-8.56-.14-10.46,0,52.88,0,108-.09,163.14,0,4.45,1.62,9.14-1.59,13.36-3-3.32-1.87-7.19-1.87-10.84q-.12-87.27,0-174.53c0-16.43,6-23.25,23.19-27.33,3.7,1.82,7.78,1.1,11.71,1.1q151.83.06,303.66,0C1524.55,151.65,1528.62,152.32,1532.36,150.63Z"/><path d="M1553.27,1442.62c-1.73,10.15-8.72,16-20.84,17.56-110.06-.24-220.12.31-330.18-.32-9.54-1.91-15.56-6.75-17.76-14.78,2.29-4.39,1.16-9,1.17-13.54.09-51.52,0-103,.11-154.57,0-4.23-1.08-8.55-.14-10.46,0,52.91,0,108-.09,163.2,0,4.45,1.63,9.14-1.6,13.36-2.92-3.34-1.87-7.21-1.87-10.87q-.09-87.29,0-174.56c0-16.42,6-23.28,23.18-27.35,3.67,1.91,7.77,1.16,11.69,1.16q151.86.06,303.74,0c3.93,0,8,.7,11.72-1.08,12,1.56,18.92,7.4,20.83,17.37-1.92,2.68-1.28,5.65-1.29,8.51q0,88.93,0,177.88C1551.92,1437,1551.25,1440,1553.27,1442.62Z"/><path d="M1208.22,947.62c-12.35-.09-19.78-5.53-23.52-15-1-66.6-.49-133.2-.31-199.8,1.39-7.4,7-11.76,15-14.36,112-1.44,224-.43,336-.54,10.87,2.29,16.67,8.22,17.95,17.38-1.88,2.21-1.43,4.76-1.43,7.22q0,90.19,0,180.39c0,2.46-.37,5,1.25,7.28-3.89,12.94-13.74,18.85-29.75,17.5-3.64-2-7.75-1.2-11.66-1.21q-145.92-.06-291.82,0C1216,946.49,1211.91,945.76,1208.22,947.62Z"/><path d="M1535.39,717.93c-3.52,3.39-8.3,2.32-12.64,2.32q-156,.07-311.92,0c-3.91,0-8.07.71-11.45-1.8,5.37-2.84,11.37-2.69,17.39-2.69l302.66,0C1524.85,715.81,1530.49,715,1535.39,717.93Z"/><path d="M1202.25,1459.86c4.63-3.69,10.42-2.13,15.69-2.14q149.5-.13,299,0c5.23,0,11.1-1.69,15.48,2.45-5.07,2.54-10.69,1.64-16.1,1.64q-147.48.08-295,0C1214.91,1461.82,1208.34,1462.42,1202.25,1459.86Z"/><path d="M1202.25,380.07c4.63-3.69,10.42-2.13,15.69-2.13q149.54-.15,299,0c5.22,0,11.1-1.69,15.45,2.49-4.61,2.36-9.72,1.41-14.63,1.42q-149,.07-297.94,0C1213.93,381.86,1207.84,382.6,1202.25,380.07Z"/><path d="M58.69,547.88c4.52,3.61,2,8.29,2.72,12.47,2.58,3.91,1.36,8.16,1.36,12.24q.1,233.91,0,467.83c0,4.08,1.18,8.33-1.32,12.25-.53,3.41,1.25,7.27-2.82,10-.44-5.78-1.28-11.57-1.29-17.35q-.11-241.29,0-482.57C57.34,557.78,58.22,552.83,58.69,547.88Z"/><path d="M1115.11,243c-3.47,3.47-8.26,2.38-12.61,2.39q-133.56.06-267.12,0c-3.91,0-8.09.73-11.34-2,4.88-2.69,10.38-2.58,15.9-2.57q130.38,0,260.74,0C1105.62,240.78,1110.74,240.18,1115.11,243Z"/><path d="M1184.39,732.83c4,3,2.72,6.93,2.72,10.56q.11,89.28,0,178.56c0,3.63,1.23,7.57-2.42,10.68-2.52-3.79-2.48-7.91-2.48-12.1q.08-88.42,0-176.85C1182.23,740,1181.64,736.16,1184.39,732.83Z"/><path d="M148.48,1135c4.58-3.79,10.39-2.21,15.66-2.21q203.48-.13,407,0c5.25,0,11.08-1.62,15.6,2.29-4,.24-7.91.7-11.87.7q-206.49,0-413,0C157.4,1135.77,152.94,1135.27,148.48,1135Z"/><path d="M580.7,475.5c-4.55,3.87-10.39,2.26-15.67,2.27q-198.87.12-397.75,0c-5.29,0-11.1,1.56-15.76-2.12,3.46-.23,6.93-.67,10.39-.67q205.7,0,411.38,0C575.76,475,578.23,475.32,580.7,475.5Z"/><path d="M1532.36,150.63c-4.08,3.53-9.36,2.19-14.16,2.19q-149.43.1-298.86,0c-4.78,0-10.09,1.37-14.1-2.28a99.75,99.75,0,0,1,10.3-1q152.52-.09,305,0C1524.51,149.52,1528.43,150.24,1532.36,150.63Z"/><path d="M1532.37,1230.37c-4,3.63-9.32,2.26-14.1,2.26q-149.49.11-299,0c-4.78,0-10.1,1.38-14.07-2.34,2.93-.4,5.86-1.15,8.79-1.15q154,0,308.09.09C1525.53,1229.23,1529,1230,1532.37,1230.37Z"/><path d="M677.06,544.86V805.07l-2.74,0c-.17-2.82-.49-5.63-.49-8.45q0-121,0-242.1c0-4-1.67-8.43,2.87-11.72A1.31,1.31,0,0,1,677.06,544.86Z"/><path d="M1208.22,947.62c4-3.68,9.3-2.31,14.08-2.31q143.54-.1,287.07,0c4.77,0,10.1-1.4,14,2.39q-130,.25-260,.49C1245,948.21,1226.62,947.82,1208.22,947.62Z"/><path d="M1115.53,1367.8H842.06c0-.7,0-1.41,0-2.11,2.87-.18,5.75-.5,8.62-.5q127.26,0,254.52,0c4.36,0,9.07-1,12.84,2l-1.08.71Z"/><path d="M1118.59,855.44H869.16v-2.67h13.11q111.54,0,223.08.07c5.27,0,11.07-1.57,15.69,2.16l-1.12.62Z"/><path d="M676.39,1070.17c-3.39-2.64-2.57-6.12-2.57-9.38q0-97.27,0-194.57c0-2,.45-3.94,3.29-5.86V1065.8C676.88,1067.26,676.64,1068.71,676.39,1070.17Z"/><path d="M1115.12,1322.68c-2.93,3.16-7.15,2.47-11.06,2.48q-114.81,0-229.61,0a5.81,5.81,0,0,1-5.25-2.94h244.22C1114.21,1321.81,1114.78,1322,1115.12,1322.68Z"/><path d="M1553.15,930.2c-3.91-3-2.66-6.92-2.66-10.52q-.1-87,0-173.94c0-3.59-1.28-7.56,2.85-10.43,2.67,11.92,1.07,24,1.13,35.91.22,48.07.13,96.14,0,144.21C1554.49,920.35,1553.62,925.28,1553.15,930.2Z"/><path d="M1553.27,1442.62c-4-2.91-2.78-6.87-2.79-10.47q-.09-87,0-173.91c0-3.61-1.24-7.55,2.72-10.5.46,6.17,1.29,12.33,1.3,18.5q.15,81.42,0,162.85C1554.49,1433.6,1553.7,1438.11,1553.27,1442.62Z"/><path d="M1553.27,362.83c-4-2.92-2.78-6.87-2.79-10.48q-.09-87,0-173.91c0-3.61-1.23-7.55,2.73-10.5.45,5.34,1.28,10.68,1.29,16q.15,82.67,0,165.34C1554.49,353.81,1553.7,358.32,1553.27,362.83Z"/><path d="M1184,363.25V180.55l3.21,0v35.86c0,45.28,0,90.56-.09,135.84,0,4.38,1.92,9.21-2.58,13.06A1.39,1.39,0,0,1,1184,363.25Z"/><path d="M1183.94,1443.07V1260.34l3.22,0v35.86c0,45.29,0,90.57-.09,135.85,0,4.38,1.93,9.22-2.58,13A1.31,1.31,0,0,1,1183.94,1443.07Z"/><path d="M1132.87,1352.63c-4-4.31-4.34-8.51.52-12.56C1136.35,1344.35,1135.28,1348.51,1132.87,1352.63Z"/><path d="M1132.89,272.83c-4.07-4.3-4.33-8.5.51-12.56C1136.35,264.55,1135.25,268.71,1132.89,272.83Z"/><path d="M862.43,296.24V801.92H861V295.73Z"/><path d="M115.72,555.85q.21,139.7.38,279.39c0,73.17-.27,146.35-.42,219.52a3.29,3.29,0,0,1-.45,1.18,17.85,17.85,0,0,1-1.76,1.45,64.09,64.09,0,0,1-1-8.09q-.08-244,0-488.1c0-2.66-1.51-5.58,1.07-8a1.54,1.54,0,0,1,1,.37A20.25,20.25,0,0,1,115.72,555.85Z"/><path d="M61.45,1052.67q0-246.17,0-492.32c4.87,3.7,2.87,8.58,2.88,12.95q.15,233.21,0,466.41C64.28,1044.07,66.28,1049,61.45,1052.67Z"/><path d="M862.44,856.08v460.71H861V855.65Z"/><path d="M155.33,1087.32c29.9-.17,59.79-.48,89.68-.49q159.3-.09,318.61,0c5.46,0,10.92.36,16.38.56,1.15.75,5,.89,2.49,2.52-1.85,1.22-5.77.29-8.76.29H148.9c-.07-.52-.14-1-.22-1.55Z"/><path d="M582.69,522.33H152.48c0-.38,0-.77,0-1.15H583.32Z"/><path d="M623.22,821.92V558.67h1.48V822.41Z"/><path d="M623.23,1051.9V833.64h1.46v218.72Z"/><path d="M683.82,853.43H802.54c0,.38,0,.77,0,1.16H683.28Z"/></g></svg>