<svg xmlns="http://www.w3.org/2000/svg" viewBox="0 0 1611.45 1611.45"><defs><style>.cls-1,.cls-2{stroke:#000;stroke-miterlimit:10;}.cls-1{stroke-width:17px;}.cls-2{stroke-linecap:round;stroke-width:62px;}</style></defs><g id="OBJECTS"><circle class="cls-1" cx="362.9" cy="541.67" r="56.88"/><circle class="cls-1" cx="550.78" cy="743.33" r="56.88"/><circle class="cls-1" cx="569.47" cy="331.76" r="56.88"/><circle class="cls-1" cx="800.77" cy="511.06" r="56.88"/><circle class="cls-1" cx="857.66" cy="237.41" r="56.88"/><path class="cls-1" d="M1546,1483.68c-8.4-1.6-17.19-1.51-25.8-1.51q-678.78-.11-1357.56-.06H121.69V1228.37c-4.5-21.27-3.62-43.61-.83-65.1v-31.06q0-526.38-.12-1052.76c0-8.58-.33-17.43-2.36-25.69-6.68-27.14-34.9-41.19-61-31.06-20.54,8-29.3,23.47-29.3,52.31q0,722,0,1444.05c0,39.85,16.26,55.7,56.75,55.7H1526.73c5,0,10.14.33,15.12-.22,23-2.52,40.14-20.27,41.44-42.64C1584.68,1507.88,1569.86,1488.23,1546,1483.68Z"/><line class="cls-2" x1="121.69" y1="1482.11" x2="1479.85" y2="149.46"/><rect class="cls-2" x="783.86" y="986.48" width="178.19" height="178.19"/><rect class="cls-2" x="1141.27" y="743.33" width="147.92" height="147.92"/><rect class="cls-2" x="1342.76" y="1056.44" width="105.66" height="105.66"/></g></svg>