<svg xmlns="http://www.w3.org/2000/svg" viewBox="0 0 2000 2000"><defs><style>.cls-1{fill:#e3b37c;}.cls-2{fill:#d8a770;}.cls-3{fill:#ffc727;}.cls-4{fill:#100e3a;}.cls-5{fill:#fff;}.cls-6{fill:#86a7ff;}.cls-7{fill:#1f3c88;opacity:0.2;}.cls-8{fill:#d3dfff;}.cls-9{fill:#474799;}.cls-10{fill:#3a6bea;}.cls-11{fill:#e28b6d;}.cls-12{fill:#f9b384;}.cls-13{fill:#6fb9ab;}.cls-14{fill:#102048;}</style></defs><g id="BACKGROUND"><rect class="cls-1" x="-12.21" y="-5.39" width="2038.02" height="2038.02"/></g><g id="OBJECTS"><path class="cls-2" d="M1936.1,1828.29c-25-135.3-142.07-256.42-279.62-259.09-51.1-1-105,12.94-151.65-7.94-34.5-15.44-58.45-47.35-89.16-69.38-46.85-33.61-107.84-42.57-165.18-36.48s-112.19,25.95-166.38,45.64c-83.37-97.8-213.79-153.53-342.09-146.19s-251.51,77.6-323.18,184.28c-142.59-1.78-278,111-302,251.59-12.31,72.13,5.52,147,44,209.11H1920.8C1940.15,1943.38,1946,1881.82,1936.1,1828.29Z"/><path class="cls-2" d="M1776.69,2001.21l-1.6-2.77c32.25-18.59,61.79-46.58,87.82-83.2,24.65-34.68,45.16-76.3,59.33-120.37,28.18-87.67,38.11-181.14,47.57-271.63-75.27,23-146.13,83.33-194.69,165.91-49.11,83.52-74.81,188.7-70.49,288.59l-3.2.14c-4.34-100.49,21.51-206.32,70.93-290.35s121.94-145.37,198.84-168l2.29-.68-.25,2.38c-9.55,91.4-19.43,185.91-48,274.67-14.26,44.38-34.93,86.3-59.77,121.25C1839.22,1954.09,1809.34,1982.39,1776.69,2001.21Z"/><path class="cls-2" d="M1712.08,1982.91l-3.19-.28c2.9-33.65,13.41-67.47,32.13-103.38,18.06-34.66,41.36-66.31,59.63-90,4.46-5.78,9-11.66,13.46-17.34,38.69-49.68,78.71-101,97.44-163.67l3.06.91c-18.9,63.21-59.1,114.82-98,164.73-4.43,5.68-9,11.55-13.45,17.32-18.2,23.61-41.38,55.12-59.34,89.55C1725.33,1916.26,1714.94,1949.68,1712.08,1982.91Z"/><path class="cls-2" d="M1796.71,1817.59a99.69,99.69,0,0,1-13.18-.87l.43-3.17c19.14,2.57,39.35-.75,58.47-9.6a131.31,131.31,0,0,0,49.44-40.42l2.56,1.92a134.49,134.49,0,0,1-50.66,41.41A112.25,112.25,0,0,1,1796.71,1817.59Z"/><path class="cls-2" d="M1828.23,1754.52c-10.48-36.85-3.29-81.14,18.31-112.84l2.65,1.8c-21.09,31-28.11,74.19-17.88,110.17Z"/><path class="cls-2" d="M1886.06,2001.61l-1.13-3c36.27-13.71,69-41.71,92-78.86,19.58-31.52,32.83-70,39.41-114.39A182.25,182.25,0,0,0,1905.73,1850l-2.12-2.4a185.47,185.47,0,0,1,114.58-45.51l1.91-.06-.28,1.89c-6.53,45.64-20,85.18-40.14,117.53C1956.24,1959.19,1923,1987.66,1886.06,2001.61Z"/><path class="cls-2" d="M1788.78,1993.14l-1.36-2.9A633.23,633.23,0,0,0,1981,1848.62l2.35,2.17A636.28,636.28,0,0,1,1788.78,1993.14Z"/><path class="cls-2" d="M1509.37,2003.57c-28-10.53-53.59-30.19-73.89-56.84-18.68-24.53-32.63-54.35-40.33-86.22-15.23-63.08-8-130.35-.06-188.46l.35-2.6,2.15,1.51c51.1,35.8,103.93,72.82,142.25,123.89,42.67,56.87,57.83,123.72,40.54,178.84l-3.05-1c17-54.13,2-119.91-40-176-37.48-50-89.16-86.5-139.37-121.69-7.77,57.22-14.52,123.08.36,184.67,7.59,31.45,21.34,60.86,39.75,85,19.94,26.17,45,45.46,72.48,55.78Z"/><rect class="cls-2" x="1488.73" y="1716.3" width="3.2" height="278.64" transform="translate(-667.74 852.05) rotate(-26.29)"/><path class="cls-2" d="M1494.3,1873.75a100.47,100.47,0,0,1-84.68-48.06l2.75-1.64a97.15,97.15,0,0,0,84,46.47l.07,3.2C1495.71,1873.74,1495,1873.75,1494.3,1873.75Z"/><path class="cls-2" d="M294.22,1999c-36.45-7.49-70.52-25.61-101.26-53.88-27.65-25.42-51.36-58.26-68.57-95-33.33-71.13-43.49-149.88-53.32-226l-.34-2.63,2.49.93c94.88,35.5,161.19,76.35,208.68,128.56,60.68,66.71,86.36,154.29,67,228.54l-3.1-.8c19.08-73.22-6.32-159.66-66.29-225.59-46.72-51.36-111.88-91.68-204.94-126.78,9.69,75.09,20,152.6,52.7,222.45,17,36.33,40.49,68.82,67.83,94,30.31,27.86,63.87,45.73,99.74,53.1Z"/><path class="cls-2" d="M327.43,1980.33A918.44,918.44,0,0,0,234.79,1835a918,918,0,0,0-118.15-125.44l2.11-2.4a921.38,921.38,0,0,1,118.57,125.87,921.88,921.88,0,0,1,93,145.82Z"/><path class="cls-2" d="M214.71,1817.27a843.75,843.75,0,0,1-90.05-37.45l1.4-2.88a840.16,840.16,0,0,0,89.7,37.31Z"/><rect class="cls-2" x="233.62" y="1833.02" width="71.46" height="3.2" transform="translate(-1583.03 1918.94) rotate(-84.25)"/><path class="cls-2" d="M164.55,1998.13c-18.76,0-38.08-5.58-56.17-16.26a155.45,155.45,0,0,1-47.12-44c-10.29-14.51-21.43-40.56-33.13-77.42-8.69-27.39-14.46-50.85-14.52-51.08l-.6-2.46,2.48.51c3.33.68,81.84,17,109.93,42.2l-2.13,2.38c-11.32-10.15-33.63-20.53-64.53-30-18.65-5.73-35.28-9.55-41.41-10.89,3.83,15,24.64,94.06,46.52,124.93A152.3,152.3,0,0,0,110,1979.11c19.08,11.28,39.54,16.7,59.13,15.71l.17,3.19C167.72,1998.09,166.14,1998.13,164.55,1998.13Z"/><path class="cls-2" d="M154.06,1958A731.3,731.3,0,0,0,45.44,1837.68l2.12-2.4a734.72,734.72,0,0,1,109.1,120.8Z"/><path class="cls-2" d="M558.1,2002.63l-2.09-2.42a254.85,254.85,0,0,0,68.29-292.76c-27.26,4.81-53.71,18.5-76.56,39.66-21.39,19.8-39.1,45.39-51.21,74-22.87,54-27.24,114.62-30,177.11l-3.19-.14c2.77-62.79,7.16-123.68,30.24-178.22,12.29-29,30.26-55,52-75.12,23.66-21.9,51.14-36,79.45-40.68l1.24-.21.5,1.15a258.06,258.06,0,0,1-68.65,297.61Z"/><path class="cls-2" d="M508.08,1991.32l-3-1a844,844,0,0,1,93.78-198.17l2.69,1.73A841.17,841.17,0,0,0,508.08,1991.32Z"/><path class="cls-2" d="M555.27,1871.59l-1.82-2.63a169.55,169.55,0,0,1,67.79-27.63l.54,3.16A166.27,166.27,0,0,0,555.27,1871.59Z"/><path class="cls-2" d="M1298.46,1902.21a13.61,13.61,0,1,1,13.6-13.6A13.61,13.61,0,0,1,1298.46,1902.21Zm0-24a10.41,10.41,0,1,0,10.4,10.41A10.42,10.42,0,0,0,1298.46,1878.2Z"/><path class="cls-2" d="M1834.57,1511.73a13.61,13.61,0,1,1,13.6-13.61A13.62,13.62,0,0,1,1834.57,1511.73Zm0-24a10.41,10.41,0,1,0,10.4,10.4A10.42,10.42,0,0,0,1834.57,1487.72Z"/><circle class="cls-2" cx="91.01" cy="1490.92" r="12"/><path class="cls-2" d="M-12.21,1713.37a13.61,13.61,0,0,1-13.6-13.6,13.62,13.62,0,0,1,13.6-13.61,13.62,13.62,0,0,1,13.6,13.61A13.61,13.61,0,0,1-12.21,1713.37Zm0-24a10.42,10.42,0,0,0-10.4,10.41,10.42,10.42,0,0,0,10.4,10.4,10.41,10.41,0,0,0,10.4-10.4A10.41,10.41,0,0,0-12.21,1689.36Z"/><path class="cls-2" d="M727.94,1871a13.6,13.6,0,1,1,13.61-13.6A13.61,13.61,0,0,1,727.94,1871Zm0-24a10.4,10.4,0,1,0,10.41,10.4A10.41,10.41,0,0,0,727.94,1847Z"/><path class="cls-3" d="M226.77,1137.78c0-25.92-35.82-46.94-80-46.94s-80,21-80,46.94,35.83,47,80,47a131.75,131.75,0,0,0,27.46-2.84c6,7.2,16.35,13.63,33.82,17.35A143.59,143.59,0,0,1,197.71,1174C215.46,1165.37,226.77,1152.35,226.77,1137.78Z"/><path class="cls-3" d="M212.64,1202.67l-5.1-1.09c-15.47-3.28-27-9-34.21-17a134.67,134.67,0,0,1-26.57,2.6c-21.8,0-42.32-5-57.8-14.08-15.87-9.32-24.62-21.84-24.62-35.27s8.75-26,24.62-35.26c15.48-9.08,36-14.08,57.8-14.08s42.32,5,57.79,14.08c15.88,9.31,24.62,21.84,24.62,35.26,0,14.52-10.38,28.09-28.58,37.45a144.06,144.06,0,0,0,9.56,22.86Zm-37.5-23.43.93,1.11c5.72,6.89,15,12,27.5,15.36a143.37,143.37,0,0,1-8.17-21.06l-.57-1.94,1.83-.89c17.61-8.54,27.71-21,27.71-34,0-24.56-34.81-44.54-77.61-44.54s-77.62,20-77.62,44.54,34.82,44.55,77.62,44.55a128.74,128.74,0,0,0,27-2.79Z"/><rect class="cls-4" x="100.61" y="1126.05" width="91.22" height="3.2"/><rect class="cls-4" x="100.61" y="1143.65" width="67.21" height="3.2"/><rect class="cls-5" x="817.61" y="1602.66" width="352.02" height="396.53"/><path class="cls-6" d="M1172.67,2002.23H814.58v-402.6h358.09Zm-352-6.07h346V1605.7h-346Z"/><rect class="cls-7" x="817.61" y="1602.66" width="352.02" height="168.99"/><circle class="cls-2" cx="993.62" cy="1732.82" r="93.74" transform="translate(-934.26 1210.13) rotate(-45)"/><rect class="cls-5" x="235.66" y="615.39" width="1515.93" height="1095.44" rx="33.34"/><path class="cls-5" d="M1717.86,1713.86H269.38a36.8,36.8,0,0,1-36.76-36.76v-1028a36.8,36.8,0,0,1,36.76-36.76H1717.86a36.8,36.8,0,0,1,36.76,36.76v1028A36.8,36.8,0,0,1,1717.86,1713.86ZM269.38,618.42a30.73,30.73,0,0,0-30.69,30.69v1028a30.73,30.73,0,0,0,30.69,30.69H1717.86a30.73,30.73,0,0,0,30.69-30.69v-1028a30.73,30.73,0,0,0-30.69-30.69Z"/><rect class="cls-8" x="263.18" y="654.02" width="1460.89" height="899.59"/><path class="cls-5" d="M1727.1,1556.64h-1467V651h1467Zm-1460.89-6.07H1721V657.05H266.21Z"/><rect class="cls-5" x="815.46" y="732.74" width="330.43" height="38.63"/><rect class="cls-5" x="552.29" y="809.08" width="856.78" height="14.45"/><rect class="cls-6" x="1243.32" y="1241.4" width="330.57" height="14.45"/><rect class="cls-6" x="1243.32" y="1277.29" width="284.65" height="14.45"/><rect class="cls-6" x="1243.32" y="1313.19" width="179.54" height="14.45"/><rect class="cls-5" x="1243.32" y="1380.01" width="290.76" height="14.45"/><rect class="cls-5" x="1243.32" y="1415.9" width="250.37" height="14.45"/><rect class="cls-5" x="388.48" y="1205.97" width="140.31" height="219.94"/><rect class="cls-9" x="564.4" y="1205.62" width="157.72" height="72.65"/><rect class="cls-5" x="564.4" y="1313.68" width="157.72" height="112.53"/><path class="cls-6" d="M1126.71,1427.79H834.65a22.59,22.59,0,0,1-22.56-22.56V1258.54A22.59,22.59,0,0,1,834.65,1236h292.06a22.59,22.59,0,0,1,22.56,22.57v146.69A22.59,22.59,0,0,1,1126.71,1427.79ZM834.65,1239.51a19,19,0,0,0-19,19v146.69a19.06,19.06,0,0,0,19,19h292.06a19.06,19.06,0,0,0,19-19V1258.54a19,19,0,0,0-19-19Z"/><polygon class="cls-10" points="847.18 1387.12 844.03 1385.54 863.98 1345.64 888.64 1371.47 918 1308.05 957.37 1345.04 1000.69 1301.72 1043.03 1327.6 1097.37 1270.95 1099.91 1273.39 1043.62 1332.09 1001.22 1306.18 957.45 1349.95 919.15 1313.97 889.66 1377.66 864.89 1351.71 847.18 1387.12"/><rect class="cls-6" x="995.66" y="1378.98" width="33.54" height="17.65"/><rect class="cls-10" x="1051.27" y="1386.04" width="58.26" height="3.53"/><path class="cls-8" d="M1112.34,1000a136.59,136.59,0,0,0-88.29-93.83l-43.37,129.25Z"/><path class="cls-6" d="M980.68,1035.43l-60.35,122.26a136.35,136.35,0,0,0,192-157.68Z"/><path class="cls-9" d="M1024.05,906.18a136.34,136.34,0,0,0-103.72,251.51l60.35-122.26Z"/><rect class="cls-8" x="459.28" y="1131.16" width="192.04" height="14.45"/><path class="cls-6" d="M723.89,1099.54H386.71V904.61H723.89ZM390.24,1096H720.36V908.14H390.24Z"/><path class="cls-8" d="M699.19,947.16c-11.19-2.24-22.28,5.05-29.36,14A115.39,115.39,0,0,0,661,974.81a144.42,144.42,0,0,1-9.65,15.27c-6.94,9.09-17.71,16.69-29,15-18.3-2.78-28.3-27.9-46.81-27.58-8.64.15-16,6.13-21.93,12.48s-11.27,13.57-18.93,17.58c-10.72,5.61-23.94,3.79-35-1s-20.85-12.21-31.41-18.1a126.18,126.18,0,0,0-58-15.62v95.35H700.4V947.48C700,947.38,699.61,947.25,699.19,947.16Z"/><path class="cls-9" d="M499.63,1006.55c11.11,4.77,24.33,6.59,35,1,7.66-4,13-11.22,18.93-17.58s13.29-12.33,21.93-12.48c18.51-.32,28.51,24.8,46.81,27.58,11.28,1.72,22-5.88,29-15A144.42,144.42,0,0,0,661,974.81c-11.25.52-22.49,1.08-32.23-4.12s-16-15.25-25.7-20.47c-17.34-9.38-38.54-.43-55.82,9.07-10.32,5.67-21.84,11.77-33.27,9-12.94-3.17-20.52-16.35-31.3-24.2-20.62-15-51.61-7.75-69.24,10.74l0,0a11.51,11.51,0,0,0-3.2,8v10a126.18,126.18,0,0,1,58,15.62C478.78,994.34,488.52,1001.78,499.63,1006.55Z"/><path class="cls-6" d="M1575.57,1177.6h-337.7V904.35h337.7Zm-333.66-4h329.61V908.4H1241.91Z"/><rect class="cls-6" x="1293.74" y="1018.18" width="35.31" height="118.87"/><rect class="cls-8" x="1293.74" y="958.16" width="35.31" height="60.02"/><rect class="cls-8" x="1357.29" y="958.16" width="35.31" height="89.15"/><rect class="cls-6" x="1357.29" y="1047.31" width="35.31" height="89.74"/><rect class="cls-6" x="1420.84" y="997.44" width="35.31" height="139.61"/><rect class="cls-8" x="1420.84" y="958.16" width="35.31" height="39.28"/><rect class="cls-6" x="1484.39" y="1049.52" width="35.31" height="87.53"/><rect class="cls-8" x="1484.39" y="958.16" width="35.31" height="91.36"/><polygon class="cls-4" points="443.62 1999.83 391.34 1945.42 391.45 1905.27 327.95 1907.16 333.19 1999.83 443.62 1999.83"/><polygon class="cls-11" points="391.87 1754.44 319.86 1764.05 322.7 1814.28 391.71 1812.6 391.87 1754.44"/><polygon class="cls-12" points="391.71 1812.6 322.7 1814.28 327.95 1907.16 391.45 1905.27 391.71 1812.6"/><rect class="cls-5" x="362.7" y="1948.62" width="30.07" height="6.4" transform="translate(-795.12 346.62) rotate(-25.2)"/><polygon class="cls-11" points="543.91 1737.91 474.56 1735.24 465.45 1788.3 531.89 1798.01 543.91 1737.91"/><path class="cls-4" d="M559.38,1946l-42.68-72,5.52-27.6c-18.82-4.31-47.87-10.94-64.22-14.59l-14.38,83.79Z"/><path class="cls-12" d="M531.89,1798l-66.44-9.71L458,1831.75c16.35,3.65,45.4,10.28,64.22,14.59Z"/><rect class="cls-5" x="489.02" y="1875.27" width="28.42" height="6.4" transform="translate(-573.06 258.75) rotate(-18.61)"/><path class="cls-13" d="M590.32,1745.92s-28.81,36.26-82.17,24.52-43.72,19.2-73.61,25.6-113.08-45.86-140.83,3.2c0,0-16.52-185.8-9-303.39,2-31.75,5.82-58.54,12.19-75.34l127.68-1.76,28.1-.39s.09.61.32,1.83c.48,2.53,1.44,7.68,3,15C466.48,1483.66,503.1,1627.27,590.32,1745.92Z"/><path class="cls-4" d="M456.05,1435.23c-28.55,18.85-88.08,51.24-171.33,60.62,2-31.75,5.82-58.54,12.19-75.34l127.68-1.76,28.42,1.44C453.49,1422.72,454.45,1427.87,456.05,1435.23Z"/><rect class="cls-5" x="205.97" y="1448.51" width="108.82" height="145.63" transform="translate(1793.26 1701.7) rotate(106.42)"/><path class="cls-6" d="M315.92,1596.09,173.17,1554l31.67-107.46,142.76,42.08Zm-138.78-44.24,136.62,40.27,29.86-101.31L207,1450.54Z"/><rect class="cls-6" x="298.98" y="1512.11" width="32.41" height="3.2" transform="translate(-1225.88 1388.09) rotate(-73.58)"/><rect class="cls-6" x="250.54" y="1528.33" width="78.02" height="3.2" transform="translate(-1259.82 1375.13) rotate(-73.58)"/><rect class="cls-6" x="231.35" y="1522.67" width="78.02" height="3.2" transform="translate(-1268.17 1352.71) rotate(-73.58)"/><rect class="cls-6" x="212.16" y="1517.01" width="78.02" height="3.2" transform="translate(-1276.5 1330.2) rotate(-73.58)"/><rect class="cls-6" x="204.78" y="1502.53" width="59.61" height="3.2" transform="translate(-1274.51 1303.95) rotate(-73.58)"/><path class="cls-12" d="M533.44,1229.53s3.94-38,7.49-37.39,3.16,9.94,3.16,9.94,8.3-21.21,12.16-21.19-.08,8.67-.08,8.67,4.28-8.67,7.48-8,.58,8,.58,8,3.34-7.11,6.59-5.85,1.2,7.08,1.2,7.08,1.78-4.6,4.8-1.53-12.49,47.6-12.49,47.6l-21.87,6.24Z"/><path class="cls-3" d="M564.43,1237s-19.07,78.45-67.18,101.37a63.27,63.27,0,0,1-38.7,5.31l-8.61-15.33-56.45-100.44L413.2,1221s44.3,16.52,68.3,53.32c0,0,22.41-2.11,52.27-46.92Z"/><path class="cls-4" d="M497.25,1338.38a63.27,63.27,0,0,1-38.7,5.31l-8.61-15.33,2.21-37.48S484.8,1309.41,497.25,1338.38Z"/><path class="cls-12" d="M298.52,1489.72s-4.32,36.94-8.09,36.31-3.32-9.92-3.32-9.92-8.94,21.25-13.05,21.24.13-8.67.13-8.67-4.61,8.7-8,8-.58-8-.58-8-3.59,7.13-7,5.89-1.25-7.09-1.25-7.09-1.92,4.62-5.12,1.56,13.53-47.67,13.53-47.67L289,1475Z"/><path class="cls-3" d="M375.07,1221.8c-94.69,11.47-122.56,142.7-111.76,265.92l35.21,2.14s5.87-120.56,54.41-178.17l40.54-83.75Z"/><path class="cls-3" d="M393.47,1227.94l65.62,44.27s18.14,84.82,17.07,160c0,0-127,47-189.91-2.13L335.86,1269Z"/><path class="cls-4" d="M431.14,1151.25c6.08-21.2-15.26-46-56.07-24.94,0,0-40.54,6.94-33.34,77.35l42.68,1.6Z"/><path class="cls-14" d="M383.6,1124.85c5.58-22.41-18.76-26-22.82-12.25-.54,1.83-12.4-4.71-15.72,6-3.8,12.24,9.42,20.39,24.34,17.32Z"/><polygon class="cls-12" points="413.2 1178.86 413.2 1221.01 394.8 1246.87 375.08 1221.81 376.14 1178.06 413.2 1178.86"/><path class="cls-14" d="M413.2,1193.26v27c-13.19-5.73-18.85-23-18.85-23Z"/><path class="cls-12" d="M431.14,1151.25s13.11,69.22-36.78,46L378,1178.46l10.19-38,26.22-6.4Z"/><path class="cls-14" d="M431.14,1151.25s-10.46-16.27-23.53-8.4-12.4,35.48-26,28.54-5.74-28.27-5.74-28.27l20-15.2,22.4,2.53Z"/><ellipse class="cls-12" cx="378.14" cy="1173.92" rx="9.47" ry="10.8" transform="translate(-536.29 346.34) rotate(-30)"/><circle class="cls-4" cx="395.07" cy="1269.54" r="6.4"/><path class="cls-14" d="M303.83,1440.82l-3.14-.61c0-.24,4.7-24,12.53-50.56,10.57-35.84,21.58-59.5,32.73-70.31l2.23,2.3C322.43,1346.6,304,1439.88,303.83,1440.82Z"/><path class="cls-14" d="M292,1365.24c-5.88-4.41-19.64-4-19.78-3.94l-.12-3.2c.61,0,15-.5,21.82,4.58Z"/><polygon class="cls-14" points="1680.67 1902.21 1679.61 1963.02 1665.74 1999.83 1740.95 1999.83 1736.68 1900.61 1680.67 1902.21"/><polygon class="cls-14" points="1569.98 1908.61 1569.98 1959.02 1510.77 1999.83 1630 1999.83 1622.79 1903.01 1569.98 1908.61"/><rect class="cls-5" x="1575.72" y="1954.59" width="6.4" height="22.46" transform="translate(-941.62 2031.49) rotate(-52.72)"/><path class="cls-9" d="M1670,1414.11l-.32,1.21-10.62,41.9-23.18,91.32a433.89,433.89,0,0,0-7.45,46.72c-11.3,103.93,3.29,236.76,10.88,294a25.09,25.09,0,0,1-24.9,28.36h-42.15a25.24,25.24,0,0,1-22.73-14.34c-53.74-112.54-45-280.6-34.21-321.73,17.06-65.07,28.8-162.15,28.8-162.15l35.82-1.53Z"/><path class="cls-9" d="M1750.68,1888.29a26.65,26.65,0,0,1-26.63,26H1688a26.58,26.58,0,0,1-26.37-23.14c-6.89-52.5-23.66-184.75-33.16-295.91-5-58.31-7.91-110.8-6.37-142.94.54-12.19,1.76-21.44,3.78-27l43.84-10,44.65-10.17s11.08,11.81,21.26,74.7C1746.17,1545.46,1755.74,1666.74,1750.68,1888.29Z"/><path class="cls-14" d="M1623.86,1684.11c-2-41-.72-75.94,3.86-106.84a39.78,39.78,0,0,1,14.76-25.35l30-23.84,2,2.5-30,23.85a36.6,36.6,0,0,0-13.59,23.31c-4.54,30.69-5.79,65.43-3.82,106.21Z"/><path class="cls-14" d="M1533.91,1697.35l-.4-3.17c20.1-2.5,37.32-2.85,52.66-1.07l-.37,3.18C1570.72,1694.54,1553.75,1694.89,1533.91,1697.35Z"/><path class="cls-14" d="M1677.94,1689.89l-.4-3.18c20.1-2.5,37.33-2.85,52.66-1.07l-.37,3.18C1714.76,1687.07,1697.78,1687.42,1677.94,1689.89Z"/><path class="cls-14" d="M1589.56,1879.64a224.18,224.18,0,0,1-48-5l.76-3.11c.47.12,47.05,11.3,94.14-.63l.78,3.1A195.7,195.7,0,0,1,1589.56,1879.64Z"/><path class="cls-14" d="M1702.32,1879.82c-4.32,0-8.42-.13-12.15-.32a254.65,254.65,0,0,1-31.31-3.55l.61-3.15c.53.11,53.19,10.13,88.24-2.83l1.11,3C1734.3,1878.34,1717,1879.82,1702.32,1879.82Z"/><path class="cls-4" d="M1735.58,1479.85c-20.39-10.88-48.53-18-76.53-22.63-12.58-2.11-25.16-3.68-37-4.9-37.48-3.81-67.54-3.81-67.54-3.81l25.42-30.59,90.06-3.81-.32,1.21,44.65-10.17S1725.4,1417,1735.58,1479.85Z"/><rect class="cls-11" x="1577.72" y="1173.23" width="37.03" height="61.8"/><path class="cls-14" d="M1595.07,1198.93a44.87,44.87,0,0,1-17.35,22.69v-27Z"/><path class="cls-11" d="M1558.62,1141.69l-2.6,26s-12.12,16.26-4.55,16.26c8.13,0,6.83,3.25,6.83,3.25s-4.56,33.82,36.74,11.71l8.78-50.73Z"/><path class="cls-14" d="M1558.62,1141.69s11.22-1.47,14.15,10.4,6.83,19.19,16.74,10.9l10.9-17.89-18.7-7.8Z"/><path class="cls-4" d="M1558.62,1141.69c0-8.46,10-28.62,41.63-23.25,30.2,5.12,35,47.47,19.34,66.82,0,0-8,12.52-18.69-10.41l-18.38-24.71-3.9-7.8Z"/><path class="cls-11" d="M1602.56,1173.31c-3,5.17-9.06,7.25-13.57,4.65s-5.75-8.91-2.76-14.08,9.06-7.25,13.57-4.65S1605.54,1168.14,1602.56,1173.31Z"/><path class="cls-4" d="M1672.67,1221.53c70.95,22.94,127,119,61.35,120.56s-105.62-59.21-105.62-59.21Z"/><path class="cls-11" d="M1358.73,1294.77s-35-15.27-36.24-11.87,7.1,7.64,7.1,7.64-22.55-3.21-24.43.16,7.59,4.2,7.59,4.2-9.66-.54-10.65,2.58,6.71,4.45,6.71,4.45-7.84-.59-8.34,2.86,5.58,4.53,5.58,4.53-4.89-.72-3.7,3.42,47.59,12.55,47.59,12.55l16.19-16Z"/><path class="cls-13" d="M1709.11,1435.68,1550.71,1453a22.1,22.1,0,0,1-24.49-22.66l2-65.35.93-30.12,0-.74a44.82,44.82,0,0,1-3.46,3.52s0,0-.07.07c-1.5,1.37-3.48,3.07-6,4.92-21,15.88-77.1,43.15-169.76-17.31l8.8-30.5,100,4.09s44.84-36.23,84.66-61.1c26-16.26,56.14-25.25,86.8-24.45,13.86.35,28.74,2.56,42.47,8.19,33.77,14,50.51,138.53,56,189.83A22.06,22.06,0,0,1,1709.11,1435.68Z"/><path class="cls-4" d="M1447.71,1328.32c-2.9-19.87,9.51-30.25,10-30.68l2,2.48a26.26,26.26,0,0,0-5.47,7.07,32.27,32.27,0,0,0-3.43,20.67Z"/><path class="cls-4" d="M1543.31,1322.89s-1,25.8-15.11,42.06l.93-30.12C1534.41,1330.54,1540.46,1325.51,1543.31,1322.89Z"/><path class="cls-4" d="M1496.42,1357.26l-.63-3.13c23.16-4.64,54.36-43.45,54.67-43.84l2.5,2a239,239,0,0,1-18.94,20.56C1519.33,1347,1506.68,1355.21,1496.42,1357.26Z"/><rect class="cls-14" x="5.4" y="1997.43" width="2000.41" height="4.8"/><path class="cls-3" d="M1609.35,929.46c0-57.69,79.73-104.46,178.07-104.46s178.06,46.77,178.06,104.46-79.72,104.47-178.06,104.47a292.22,292.22,0,0,1-61.12-6.32c-13.32,16-36.38,30.35-75.26,38.6,0,0,14.27-26.19,23-56.19C1634.53,990.86,1609.35,961.88,1609.35,929.46Z"/><path class="cls-3" d="M1640.8,1073.85l5.55-10.19a321.26,321.26,0,0,0,21.28-50.88c-40.5-20.82-63.62-51-63.62-83.32,0-29.87,19.46-57.74,54.79-78.47,34.44-20.21,80.12-31.33,128.62-31.33S1881.59,830.78,1916,851c35.33,20.73,54.79,48.6,54.79,78.47s-19.46,57.75-54.79,78.48c-34.44,20.2-80.12,31.33-128.61,31.33a299,299,0,0,1-59.14-5.79c-16.1,17.88-41.69,30.64-76.13,38Zm146.62-243.51c-95.24,0-172.72,44.47-172.72,99.12,0,29.13,22.48,56.74,61.67,75.75l4.06,2-1.26,4.33a316.3,316.3,0,0,1-18.19,46.85c27.92-7.37,48.48-18.84,61.21-34.17l2.07-2.48,3.16.68a287,287,0,0,0,60,6.19c95.24,0,172.72-44.46,172.72-99.12S1882.66,830.34,1787.42,830.34Z"/><rect class="cls-4" x="1687.11" y="903.35" width="202.99" height="7.12"/><rect class="cls-4" x="1687.11" y="942.52" width="149.57" height="7.12"/></g></svg>