<svg xmlns="http://www.w3.org/2000/svg" viewBox="0 0 1611.45 1611.45"><defs><style>.cls-1{stroke:#000;stroke-miterlimit:10;stroke-width:17px;}</style></defs><g id="OBJECTS"><path class="cls-1" d="M127,1188.47,263.34,1114c-1.5-44.35,13.39-79.41,59-91.14,38.7-10,68.81,6.09,90.52,41.83l193.36-16c35.67-53.24,48-59.92,103.05-55.61L885.49,764.23c-17-39.64-15.87-77,20.75-104.58,31.29-23.61,64.54-19.83,98,2.67l179.49-98.48c-.44-62.89,42.84-101.82,109.51-85.61L1396,341.72,1341.39,299l161.26-64.55c-5,59.81-9.78,116.26-14.89,176.88l-49-36.7L1332.57,515.72c13.26,37.44,9.65,72-23.42,97.07-32.05,24.33-65.77,20.36-98.79-2.19l-178.62,98.06c-1.5,64.76-43,98.29-103.13,88l-176.45,229c20.1,49.53,9.9,89.67-32.4,112.22C682,1158,644.86,1145.32,612.53,1102L419.8,1117.82c-40.38,61.41-68.19,70.45-128.21,41.85l-163.72,90v256.54h40.85q677.58,0,1355.16.06c8.6,0,17.38-.09,25.76,1.5,23.84,4.55,38.63,24.16,37.24,48.12-1.29,22.34-18.37,40.05-41.36,42.57-5,.55-10.06.22-15.09.22H91.1c-40.42,0-56.65-15.82-56.65-55.6q-.06-720.75,0-1441.5c0-28.79,8.74-44.26,29.25-52.22,26.05-10.11,54.22,3.92,60.89,31,2,8.25,2.36,17.08,2.36,25.64q.18,525.45.11,1050.91Z"/><path d="M491.53,871a49.32,49.32,0,0,1,51.54-47c28.53,1.31,48.56,23.92,47.28,53.36a49.19,49.19,0,0,1-51.46,47.07C510.59,923.09,490.2,900.11,491.53,871Z"/><path d="M902.41,1124.1c.23-27,22.64-49.49,49.54-49.75,27.29-.26,51.37,23.83,50.9,50.92-.48,27.7-24.47,50.63-52,49.71C923.92,1174.09,902.18,1151.24,902.41,1124.1Z"/><path d="M304.36,1448c-27.8-.28-49.07-21.56-49.29-49.32-.23-28.7,21.58-50.08,50.81-49.8a49.72,49.72,0,0,1,49.68,49.21C355.75,1426.2,333.05,1448.32,304.36,1448Z"/><path d="M1569.93,603.32c0,27.86-21,49.42-48.63,49.94-28.56.53-50.46-21.28-50.4-50.19.06-28.13,20.94-49.66,48.5-50C1547.91,552.69,1570,574.63,1569.93,603.32Z"/><path d="M1065,497.77A50,50,0,0,1,1014.8,449c-.6-28.23,21.62-50.58,50.35-50.63,27.74-.05,49.76,21.26,50.23,48.62C1115.86,475,1093.43,497.62,1065,497.77Z"/><path d="M306,900.69C277,901,254.93,879.5,255.07,851a49.61,49.61,0,0,1,49.28-49.54c28.38-.41,51.47,22.14,51.2,50C355.28,879,333.71,900.39,306,900.69Z"/><path d="M1284.66,994.73c-.19,28.23-23.39,50.92-51.16,50-27.42-.87-48.37-22.89-48.19-50.62s21.61-49.56,48.85-49.8A49.54,49.54,0,0,1,1284.66,994.73Z"/><path d="M1033.38,952.47c-29-.34-50-22.23-49.25-51.21.73-27.41,22.61-48.25,50.44-48a49.75,49.75,0,0,1,49.61,49.25C1084.48,930.9,1062.21,952.82,1033.38,952.47Z"/><path d="M448.42,1244.55c.12-28.73,22.33-50.58,50.73-49.92,27.54.64,48.41,22.3,48.33,50.15-.09,28.8-22.17,50.59-50.73,50C469.55,1294.31,448.3,1272.2,448.42,1244.55Z"/><path d="M762.31,1380.42c-28.72-.23-50.53-22.68-49.66-51.13a50.2,50.2,0,0,1,100.36,3C812.19,1359.68,790.09,1380.65,762.31,1380.42Z"/><path d="M1185.06,283.08c-28.53.39-49.55-19.41-50.37-47.46-.86-29.29,19.66-51,48.69-51.49s50.5,20.71,50.45,49.81C1233.79,262,1213.24,282.7,1185.06,283.08Z"/><path d="M874.93,287.65c28.86.14,49.74,21.93,49,51.18-.68,27.95-21.75,48.05-50.16,47.84-28-.22-48.95-21-49.29-48.94C824.17,309.24,846.05,287.51,874.93,287.65Z"/><path d="M1307.29,848.93c-28.11-.42-48.75-21.35-48.71-49.4.05-28.93,21.64-50.17,50.61-49.78,28.55.38,49.52,22.63,48.73,51.72C1357.19,828.92,1335.4,849.34,1307.29,848.93Z"/><path d="M835.81,535.27c.37,28.85-21.13,50.4-50.14,50.25-28.17-.16-48.9-20.82-49.12-49-.21-28.44,19.85-49.52,47.83-50.27C813.23,485.52,835.44,506.67,835.81,535.27Z"/><path d="M592,605.45c28.11-.53,49.41,19.79,50.09,47.8.7,29.13-20.21,51.33-48.65,51.65-27.92.3-49.39-20.26-50.13-48C542.55,627.49,562.88,606,592,605.45Z"/></g></svg>