<svg xmlns="http://www.w3.org/2000/svg" width="88.571" height="112.726" viewBox="0 0 88.571 112.726"><defs><style>.a{fill:#fff;}</style></defs><path class="a" d="M76.493,0H12.078A12.078,12.078,0,0,0,0,12.078v88.571a12.078,12.078,0,0,0,12.078,12.078H60.389a4.227,4.227,0,0,0,2.858-1.168L87.4,87.4a4.026,4.026,0,0,0,1.168-2.858V12.078A12.078,12.078,0,0,0,76.493,0ZM8.052,100.649V12.078a4.026,4.026,0,0,1,4.026-4.026H76.493a4.026,4.026,0,0,1,4.026,4.026V80.519H68.441A12.078,12.078,0,0,0,56.363,92.6v12.078H12.078A4.026,4.026,0,0,1,8.052,100.649Zm66.79-12.078L64.415,99V92.6a4.026,4.026,0,0,1,4.026-4.026ZM16.1,44.285a4.026,4.026,0,0,1,4.026-4.026H68.441a4.026,4.026,0,1,1,0,8.052H20.13A4.026,4.026,0,0,1,16.1,44.285Zm0-20.13A4.026,4.026,0,0,1,20.13,20.13H68.441a4.026,4.026,0,0,1,0,8.052H20.13A4.026,4.026,0,0,1,16.1,24.156Zm0,40.259a4.026,4.026,0,0,1,4.026-4.026H68.441a4.026,4.026,0,1,1,0,8.052H20.13A4.026,4.026,0,0,1,16.1,64.415Zm28.182,20.13a4.026,4.026,0,0,1-4.026,4.026H20.13a4.026,4.026,0,0,1,0-8.052h20.13A4.026,4.026,0,0,1,44.285,84.545Z" transform="translate(88.571 112.726) rotate(180)"/></svg>