<svg xmlns="http://www.w3.org/2000/svg" viewBox="0 0 1611.45 1611.45"><defs><style>.cls-1{stroke:#000;stroke-miterlimit:10;stroke-width:17px;}</style></defs><g id="OBJECTS"><polygon points="593.22 1162.11 377.48 916.61 405.61 891.88 591.12 1102.98 851.47 760.42 1080.08 933.61 1442.28 477.51 1471.61 500.8 1086.64 985.57 858.65 812.85 593.22 1162.11"/><circle cx="370.79" cy="886.95" r="76.1"/><circle cx="596.78" cy="1132.54" r="76.1"/><circle cx="848.14" cy="786.65" r="76.1"/><circle cx="1087.97" cy="963.05" r="76.1"/><circle cx="1424.66" cy="511.06" r="76.1"/><path class="cls-1" d="M1546.91,1509.22c-8.41-1.6-17.21-1.51-25.83-1.51q-679.63-.11-1359.27-.06h-41V1253.58c-4.52-21.29-3.63-43.65-.84-65.18v-31.09q0-527-.11-1054.09c0-8.59-.34-17.44-2.37-25.72-6.69-27.17-34.94-41.24-61.07-31.1-20.57,8-29.35,23.5-29.35,52.38q0,722.93,0,1445.87c0,39.89,16.28,55.76,56.83,55.76H1527.64c5,0,10.14.33,15.14-.22,23-2.53,40.19-20.29,41.48-42.7C1585.66,1533.45,1570.82,1513.78,1546.91,1509.22Z"/></g></svg>