<svg xmlns="http://www.w3.org/2000/svg" width="95.209" height="113.891" viewBox="0 0 95.209 113.891"><defs><style>.a{fill:#2295a2;stroke:#fff;}</style></defs><g transform="translate(0.5 0.665)"><g transform="translate(0 0)"><path class="a" d="M104.409,35.78H85.126a3.851,3.851,0,1,0,0,7.7h15.343v59.212H22.021V43.48H37.364a3.851,3.851,0,1,0,0-7.7H18.081a3.9,3.9,0,0,0-3.941,3.85v66.912a3.9,3.9,0,0,0,3.941,3.85h86.328a3.9,3.9,0,0,0,3.941-3.85V39.63A3.9,3.9,0,0,0,104.409,35.78Z" transform="translate(-14.14 2.335)"/><path class="a" d="M55.859,95.719a3.85,3.85,0,0,0,3.85-3.85V18.3l18.865,16.17a3.85,3.85,0,1,0,4.992-5.839L58.374,7a3.85,3.85,0,0,0-5,0L28.139,28.628a3.85,3.85,0,1,0,5,5.839L52.009,18.3V91.869a3.85,3.85,0,0,0,3.85,3.85Z" transform="translate(-9.951 -6.08)"/></g></g></svg>