<svg xmlns="http://www.w3.org/2000/svg" xmlns:xlink="http://www.w3.org/1999/xlink" width="17" height="17" viewBox="0 0 17 17"><defs><style>.a,.d{fill:#fff;}.b{fill:none;}.c{clip-path:url(#a);}.d{fill-rule:evenodd;}</style><clipPath id="a"><rect class="a" width="17" height="17"/></clipPath></defs><rect class="b" width="17" height="17"/><g class="c"><path class="d" d="M17,48.77a1.047,1.047,0,0,0-1.047-1.047H1.047A1.047,1.047,0,0,0,0,48.77v1.493a1.047,1.047,0,0,0,1.047,1.047H15.953A1.047,1.047,0,0,0,17,50.263ZM6.632,41.528v4.488a.763.763,0,0,0,.763.763h2.21a.763.763,0,0,0,.763-.763V41.528h1.486a.712.712,0,0,0,.5-1.215L9,36.958a.712.712,0,0,0-1.007,0L4.642,40.313a.712.712,0,0,0,.5,1.215Z" transform="translate(0 -35.53)"/></g></svg>