<svg xmlns="http://www.w3.org/2000/svg" xmlns:xlink="http://www.w3.org/1999/xlink" width="136.5" height="172" viewBox="0 0 136.5 172"><defs><style>.a{fill:#fff;}.b{fill:#009539;}.c{filter:url(#a);}</style><filter id="a" x="0" y="0" width="136.5" height="172" filterUnits="userSpaceOnUse"><feOffset dy="5" input="SourceAlpha"/><feGaussianBlur stdDeviation="5" result="b"/><feFlood flood-opacity="0.161"/><feComposite operator="in" in2="b"/><feComposite in="SourceGraphic"/></filter></defs><g transform="translate(-1277 -575)"><g class="c" transform="matrix(1, 0, 0, 1, 1277, 575)"><path class="a" d="M62.125,37.719V0H6.656A6.64,6.64,0,0,0,0,6.656V135.344A6.64,6.64,0,0,0,6.656,142H99.844a6.64,6.64,0,0,0,6.656-6.656V44.375H68.781A6.676,6.676,0,0,1,62.125,37.719ZM106.5,33.808V35.5H71V0h1.692a6.651,6.651,0,0,1,4.715,1.941l27.152,27.18A6.635,6.635,0,0,1,106.5,33.808Z" transform="translate(15 10)"/></g><path class="b" d="M-2107.813,124.277h-9.679a3.281,3.281,0,0,1-2.915-1.725,3.3,3.3,0,0,1,.113-3.406l16.725-25.932-16.725-25.931a3.268,3.268,0,0,1-.135-3.385,3.3,3.3,0,0,1,2.937-1.746h9.652A3.329,3.329,0,0,1-2104.9,63.9c3.119,5.831,4.553,8.321,5.6,10.139a97.5,97.5,0,0,1,4.551,8.859s.018-.036.055-.108c.76-1.442,3.265-6.169,10.1-18.891a3.329,3.329,0,0,1,2.939-1.747h9.689a3.241,3.241,0,0,1,2.88,1.7,3.294,3.294,0,0,1-.115,3.4l-16.669,25.932,16.669,25.932a3.3,3.3,0,0,1,.113,3.406,3.281,3.281,0,0,1-2.915,1.725h-9.679a3.33,3.33,0,0,1-2.939-1.748c-5.37-9.917-10.076-18.963-10.123-19.053a103.762,103.762,0,0,1-5.111,9.894l-.005.009c-1.277,2.316-2.866,5.2-5.035,9.178A3.306,3.306,0,0,1-2107.813,124.277Z" transform="translate(3440 585)"/></g></svg>