<svg xmlns="http://www.w3.org/2000/svg" viewBox="0 0 1611.45 1611.45"><g id="OBJECTS"><path d="M1178.21,1195.7c-202.29,163.82-504.93,112.08-639.94-113.84-135.47-226.68-36.1-527.24,218.12-623.4-11.78-13.25-23.11-26-34.45-38.73-11.15-12.54-22.32-25.07-33.94-38.11-46.35,27-94.15,30.51-144.47,12.57l-221.18,313c11.88,27.63,26.58,51.67,32.53,77.71C369.05,847,350,900.7,300.81,941c-49.7,40.76-106.63,48.52-165.19,22.12-58.38-26.31-91.11-73.41-93.7-137.91-4.09-101.45,81.24-177.81,181.75-163.67,12.85,1.81,19.59-1,27.11-11.78q105.75-151.29,212.91-301.6c6-8.43,7.1-14.36,1.52-24.09a157.17,157.17,0,0,1,20.91-184.77C533,88.45,606.05,73.16,668.54,101.11c62.22,27.83,100.59,93.62,93.22,161.4-1.47,13.55-6.77,26.65-9.11,40.16-.88,5.07-.2,12.32,2.88,15.88,31.8,36.65,63.91,73.05,96.88,108.65,4.45,4.81,14.23,7.21,21.26,6.72q171.39-11.82,305,95.73c13.07,10.51,25.14,22.27,38.49,34.18,12.88-11.94,26.16-23.09,37.78-35.75,3.21-3.5,3.26-12,1.79-17.38-18.36-67.69,8.39-139.6,66.39-177,59.57-38.4,135.67-33.68,189.66,11.78,62.35,52.49,74.6,144.76,28.12,211.75-47.09,67.87-138,88.63-209.35,47.83-4.41-2.52-8.73-5.17-14.38-8.53-14.35,13.36-28.78,26.8-44,40.92,46.39,77.62,67.43,161.15,62,250.65-5.42,89.07-36.11,169.05-92.37,241.28,11.46,11.09,22.34,22.4,34.21,32.57,2.78,2.38,9.39,2.37,13.36,1,60.48-21.25,113.61-9.23,159.33,35.12,27.13,26.32,54.29,52.71,79.9,80.47,38.55,41.79,49.48,91.39,31.91,145.09-17.4,53.14-55.31,86.46-110.36,97.39-46.82,9.3-89.82-1.7-125.09-34.43-31.06-28.82-61.6-58.44-89.9-89.93-40.47-45-48.91-97.39-26.74-153.88,3.7-9.43,4-15.61-4.29-22.38-8.66-7.09-16.15-15.61-24.2-23.43A8.7,8.7,0,0,0,1178.21,1195.7Zm-270.72,3.15c186.84-.39,336.55-150.47,336.42-337.23-.13-186.46-150.63-337.14-336.86-337.27C720.63,524.22,569,676.27,569.47,862.8,570,1048.92,721.18,1199.24,907.49,1198.85Zm572.36,177.73c-4.92-10.88-7.5-23.94-15.2-32.23q-41.7-44.86-86.43-86.86c-20-18.74-51.21-16.76-71.19,1.85-20.51,19.11-24.61,51-5.57,71.91,28.53,31.26,58.71,61.17,89.88,89.82,15.91,14.63,36.75,14.65,56.11,5S1476.59,1399.74,1479.85,1376.58ZM133.41,817.86c-.19,37.44,29.16,67.33,66.37,67.58A67.46,67.46,0,0,0,267.6,818.9c.42-36.5-30-67.46-66.76-67.84C164,750.67,133.6,780.77,133.41,817.86Zm469.52-638.3c-37.2.3-67.23,30.66-66.74,67.45a67.35,67.35,0,0,0,68,66.37,66.66,66.66,0,0,0,66.37-67.6C670.3,208.53,640.42,179.26,602.93,179.56Zm874.05,288c.27-37.49-28.89-67.28-66.23-67.68a67.19,67.19,0,0,0-68,66.3c-.57,36.78,29.47,67.27,66.6,67.59C1446.81,534.09,1476.71,504.8,1477,467.55Z"/><path d="M962,854.9c0,46,.13,91.92,0,137.89-.12,29.86-19.07,50.17-46.06,49.94s-45.75-20.6-45.8-50.63q-.24-137.88,0-275.77c0-27.27,16-46.33,40.37-49.6a45,45,0,0,1,49.42,32.16c1.81,6.23,2,13.08,2,19.65C962.08,764,962,809.45,962,854.9Z"/><path d="M691.63,854.33c0-18.87-.25-37.74.07-56.61.45-27.09,20.36-47.25,46-47.09,24.88.16,45.25,19.93,45.67,46q.92,58.13,0,116.28c-.46,25.82-21.51,45.83-46.1,45.68-25-.17-44.71-20.14-45.6-46.14,0-1,0-2,0-3.06Q691.62,881.88,691.63,854.33Z"/><path d="M1141.12,855.13c0,17.85.39,35.71-.09,53.55-.78,28.85-20,48.86-46.16,48.74s-45.24-20.23-45.57-49.15q-.6-53.53,0-107.09c.31-29,19-49.16,45.21-49.56,26.49-.4,45.93,20.23,46.56,50C1141.44,819.43,1141.13,837.28,1141.12,855.13Z"/></g></svg>